<?xml version="1.0" encoding="utf-8"?>
<!-- Generator: Adobe Illustrator 16.0.0, SVG Export Plug-In . SVG Version: 6.00 Build 0)  -->
<!DOCTYPE svg PUBLIC "-//W3C//DTD SVG 1.1//EN" "http://www.w3.org/Graphics/SVG/1.1/DTD/svg11.dtd">
<svg version="1.1" id="Layer_1" xmlns="http://www.w3.org/2000/svg" xmlns:xlink="http://www.w3.org/1999/xlink" x="0px" y="0px"
	 width="1024px" height="340px" viewBox="0 0 1024 340" enable-background="new 0 0 1024 340" xml:space="preserve">
<text transform="matrix(1 0 0 1 199.0083 276.4404)" fill="#FFFFFF" font-family="'MyriadPro-Regular'" font-size="300">Social</text>
<g id="g3027" transform="matrix(1,0,0,-1,136.67797,1300.6102)">
	<path id="path3029" inkscape:connector-curvature="0" fill="#2EB991" d="M-0.148,1141.191c0.813,0.517,1.735,1.329,2.769,2.437
		v-0.111c0-0.147-0.351-0.517-1.052-1.107c-0.701-0.591-1.126-1.034-1.273-1.33C0.222,1141.154,0.074,1141.191-0.148,1141.191z
		 M-0.812,1141.08c-0.074,0.074-0.166,0.185-0.277,0.333c-0.111,0.147-0.166,0.258-0.166,0.332c0.222-0.148,0.591-0.332,1.107-0.554
		C-0.591,1140.896-0.812,1140.858-0.812,1141.08z M-51.644,1161.347c-1.181,0.147-2.141,0.331-2.878,0.553
		c0.073,0,0.313-0.036,0.719-0.11c0.406-0.073,0.793-0.147,1.163-0.222C-52.271,1161.495-51.939,1161.42-51.644,1161.347z
		 M-46.66,1165.444c0.517,0.296,1.015,0.388,1.495,0.276c0.48-0.109,0.756-0.387,0.831-0.83
		C-44.704,1165.112-45.479,1165.296-46.66,1165.444z M-47.546,1164.78l-0.333,0.222c-0.148,0.222-0.351,0.406-0.609,0.554
		c-0.258,0.147-0.425,0.221-0.499,0.221c0.148-0.073,0.923-0.184,2.326-0.332C-47.103,1165.149-47.398,1164.927-47.546,1164.78z
		 M-58.843,1174.082v0.221c0.074-0.147,0.185-0.351,0.332-0.608c0.147-0.26,0.259-0.462,0.333-0.609L-58.843,1174.082z
		 M-70.471,1169.653c0-0.148-0.036-0.222-0.11-0.222l-0.111,0.222H-70.471z M-28.941,1054.034v-0.11V1054.034z M-47.214,1187.15
		c15.431,0,29.661-3.802,42.692-11.406c13.031-7.604,23.35-17.922,30.953-30.954c7.604-13.031,11.407-27.262,11.407-42.692
		s-3.803-29.66-11.407-42.691c-7.604-13.032-17.922-23.349-30.953-30.953c-13.031-7.605-27.262-11.407-42.692-11.407
		s-29.662,3.802-42.692,11.407c-13.031,7.604-23.349,17.921-30.954,30.953c-7.604,13.031-11.406,27.262-11.406,42.691
		s3.802,29.661,11.406,42.692c7.604,13.032,17.922,23.35,30.954,30.954C-76.876,1183.348-62.645,1187.15-47.214,1187.15z
		 M5.058,1049.161l0.554,0.555c-0.518,0.738-1.588,1.182-3.212,1.329c0.074,0.886-0.443,1.864-1.551,2.935
		c-1.107,1.07-2.104,1.644-2.99,1.716c0,0.295-0.388,0.702-1.162,1.218c-0.775,0.518-1.422,0.813-1.939,0.887
		c-0.665,0.148-1.661-0.184-2.99-0.997c-0.517-0.221-0.664-0.405-0.443-0.553c-0.221,0.22-0.665,0.627-1.33,1.218
		c-0.664,0.591-1.254,0.996-1.771,1.219c-0.147,0.073-0.424,0.109-0.831,0.109s-0.72,0.074-0.941,0.223
		c-0.073,0.073-0.295,0.239-0.664,0.497c-0.37,0.259-0.627,0.426-0.775,0.499c-0.147,0.074-0.387,0.186-0.72,0.333
		s-0.609,0.202-0.831,0.166c-0.222-0.037-0.499-0.13-0.831-0.277s-0.646-0.369-0.941-0.664c-0.295-0.295-0.461-0.868-0.499-1.718
		c-0.037-0.848-0.129-1.385-0.277-1.604c-0.59,0.443-0.609,1.181-0.055,2.214c0.554,1.034,0.608,1.772,0.166,2.216
		c-0.517,0.516-1.292,0.534-2.326,0.055c-1.033-0.48-1.809-1.052-2.325-1.716c-0.074-0.074-0.424-0.277-1.052-0.609
		c-0.628-0.332-1.053-0.609-1.274-0.831c-0.295-0.442-0.627-1.089-0.996-1.938c-0.369-0.85-0.59-1.348-0.665-1.496
		c0,0.148-0.093,0.389-0.277,0.721s-0.277,0.572-0.277,0.72c-0.886-0.147-1.477-0.037-1.772,0.333
		c0.37-1.183,0.665-1.809,0.886-1.884l-0.443,0.223c-0.073-0.443,0.037-0.998,0.332-1.662c0.295-0.664,0.443-1.07,0.443-1.218
		c0.074-0.369,0.019-0.85-0.166-1.44c-0.185-0.59-0.277-0.996-0.277-1.218c0-0.147,0.185-0.554,0.554-1.219
		c0.295-1.403,0.222-2.583-0.221-3.544c0-0.073-0.129-0.332-0.388-0.775c-0.258-0.442-0.498-0.848-0.72-1.218l-0.222-0.553
		l-0.221,0.109c-0.074,0.075-0.147,0.075-0.221,0c-0.074-0.442-0.406-0.923-0.997-1.438c-0.59-0.518-0.96-0.923-1.107-1.219
		c-1.108-1.697-1.44-3.1-0.997-4.209c0.222-0.59,0.591-0.959,1.107-1.107c0.222-0.072,0.333,0,0.333,0.223
		c0.074-0.665-0.333-1.661-1.218-2.99c0.074-0.074,0.221-0.185,0.443-0.332c-1.255,0-1.624-0.519-1.107-1.551
		c14.914,2.657,27.908,9.34,38.982,20.045H4.504L5.058,1049.161z M-56.96,1069.649c1.182,0.222,2.308-0.369,3.378-1.771
		s1.901-2.253,2.491-2.548c3.027-1.476,5.206-1.883,6.534-1.219c0-0.664,0.517-1.697,1.551-3.1c0.221-0.296,0.461-0.721,0.72-1.273
		c0.259-0.555,0.461-0.942,0.609-1.163c0.369-0.517,1.071-1.107,2.104-1.772c1.034-0.664,1.735-1.255,2.104-1.771
		c0.442,0.22,0.775,0.553,0.996,0.995c0.96-2.584,1.846-3.839,2.658-3.765c0.37,0,0.665,0.296,0.886,0.886
		c0-0.074-0.019-0.185-0.056-0.333c-0.037-0.147-0.092-0.257-0.166-0.332c0.517,1.107,0.701,2.068,0.553,2.88l0.665,0.443
		c0.369,0.296,0.553,0.479,0.553,0.554c-0.443,0.442-0.775,0.333-0.997-0.333c-2.215-1.032-3.987-0.221-5.316,2.437
		c-0.147,0.223-0.313,0.518-0.498,0.887s-0.37,0.812-0.554,1.329c-0.185,0.516-0.24,0.941-0.166,1.272
		c0.073,0.332,0.295,0.499,0.665,0.499c0.812,0,1.273,0.056,1.384,0.166c0.11,0.11,0.019,0.333-0.277,0.665
		c-0.295,0.332-0.443,0.608-0.443,0.829c-0.074,0.296-0.129,0.758-0.166,1.385c-0.037,0.629-0.092,1.09-0.167,1.385l-0.553,0.665
		c-0.37,0.443-0.793,0.94-1.273,1.495c-0.48,0.553-0.757,0.903-0.831,1.052c-0.295-0.738-0.905-1.052-1.827-0.942
		c-0.923,0.111-1.606,0.462-2.049,1.053c0.073-0.147,0.055-0.387-0.056-0.72s-0.167-0.571-0.167-0.72
		c-1.033,0-1.661,0.037-1.882,0.11c0.074,0.443,0.185,1.219,0.332,2.326s0.295,1.919,0.443,2.438
		c0.074,0.367,0.277,0.866,0.609,1.493c0.333,0.628,0.627,1.199,0.886,1.718c0.258,0.517,0.425,1.033,0.499,1.55
		s-0.092,0.905-0.499,1.163c-0.406,0.258-1.088,0.351-2.048,0.276c-1.477-0.073-2.547-0.886-3.212-2.437
		c-0.074-0.221-0.185-0.646-0.332-1.273c-0.148-0.627-0.333-1.088-0.555-1.384c-0.221-0.296-0.553-0.555-0.996-0.775
		c-0.591-0.222-1.588-0.296-2.99-0.222c-1.403,0.074-2.363,0.258-2.88,0.554c-1.034,0.591-1.919,1.716-2.657,3.378
		c-0.739,1.661-1.145,3.193-1.219,4.596c0,0.738,0.111,1.754,0.333,3.045c0.221,1.293,0.332,2.289,0.332,2.991
		c0,0.701-0.221,1.68-0.665,2.935c0.222,0.147,0.591,0.535,1.107,1.163c0.517,0.628,0.923,1.052,1.218,1.272
		c0.148,0.148,0.332,0.223,0.554,0.223h0.554c0,0,0.148,0.073,0.443,0.221c0.296,0.147,0.407,0.369,0.333,0.664
		c-0.074,0.075-0.221,0.186-0.443,0.333c-0.221,0.222-0.369,0.332-0.443,0.332c0.295-0.222,0.997-0.258,2.104-0.11
		c1.108,0.147,1.809,0.221,2.104,0.221c0,0.075,0.813,0.075,2.437,0c1.255-0.96,2.141-0.886,2.658,0.223
		c0,0.072-0.093,0.461-0.277,1.162c-0.184,0.701-0.203,1.236-0.055,1.606c0.369-2.142,1.55-2.511,3.544-1.107
		c0.221-0.295,0.831-0.519,1.827-0.666c0.997-0.147,1.68-0.332,2.048-0.552c0.222-0.148,0.48-0.352,0.776-0.609
		c0.295-0.259,0.517-0.443,0.664-0.555c0.148-0.111,0.37-0.13,0.665-0.055c0.295,0.073,0.628,0.332,0.997,0.775
		c0.812-1.256,1.292-2.179,1.439-2.769c0.812-3.175,1.55-4.948,2.215-5.316c0.591-0.147,1.052-0.222,1.384-0.222
		c0.332,0,0.517,0.388,0.554,1.163c0.037,0.774,0.037,1.348,0,1.716c-0.037,0.37-0.092,0.85-0.167,1.44l-0.221,4.098
		c-1.182,0.222-1.92,0.683-2.215,1.384s-0.24,1.439,0.166,2.215c0.407,0.775,1.015,1.495,1.827,2.159
		c0.074,0.075,0.683,0.37,1.828,0.887c1.145,0.517,1.938,0.959,2.381,1.33c1.772,1.402,2.4,2.841,1.883,4.318
		c0.664-0.148,1.07,0.184,1.218,0.996l-0.554,0.333c-0.295,0.221-0.591,0.424-0.886,0.609c-0.295,0.184-0.48,0.238-0.554,0.165
		c0.813,0.517,0.886,1.182,0.221,1.993c0.37,0.222,0.665,0.646,0.887,1.273c0.221,0.628,0.553,1.052,0.996,1.274
		c0.665-1.033,1.477-1.145,2.437-0.332c0.591,0.665,0.664,1.328,0.221,1.993c0.37,0.59,1.182,1.015,2.436,1.273
		c1.255,0.259,1.994,0.609,2.215,1.052c0.37-0.074,0.627-0.074,0.775,0c0.148,0.074,0.222,0.239,0.222,0.498v0.831
		c0,0,0.037,0.313,0.11,0.941c0.074,0.627,0.185,0.904,0.333,0.83c0.295,0.443,0.886,0.831,1.771,1.163
		c0.886,0.333,1.403,0.535,1.55,0.609l2.104,1.329c0.295,0.295,0.295,0.443,0,0.443c1.329-0.148,2.511,0.258,3.544,1.218
		c0.96,0.886,0.775,1.734-0.554,2.547c0.147,0.518,0,0.905-0.443,1.163c-0.443,0.258-1.033,0.462-1.771,0.609
		c0.221,0.073,0.665,0.091,1.329,0.055c0.665-0.037,1.108,0.018,1.33,0.166c1.107,0.812,0.849,1.44-0.775,1.883
		c-1.477,0.369-3.212-0.111-5.206-1.44c-0.221-0.147-0.701-0.59-1.439-1.329c-0.739-0.737-1.366-1.145-1.883-1.218
		c1.107,1.329,1.292,2.141,0.553,2.436c0.59-0.074,1.422,0.258,2.492,0.997c1.07,0.738,1.643,1.145,1.716,1.218
		c0.295,0.147,0.683,0.24,1.163,0.276c0.479,0.037,0.793,0.092,0.941,0.166c5.243,1.846,8.638,1.809,10.188-0.111
		c0.59,0.813,0.997,1.366,1.219,1.662c0.221,0.295,0.572,0.627,1.052,0.996c0.48,0.369,1.052,0.665,1.716,0.886
		c1.551,0.516,2.399,0.849,2.548,0.996l0.11,2.547c-0.886-0.074-1.551,0.222-1.994,0.886c-0.442,0.665-0.702,1.477-0.775,2.436
		l-0.665-0.885c0,0.443-0.129,0.72-0.388,0.831c-0.258,0.11-0.535,0.128-0.831,0.054c-0.295-0.073-0.646-0.147-1.052-0.221
		c-0.406-0.074-0.684-0.074-0.831,0c-0.665,0.147-1.385,0.72-2.159,1.716c-0.776,0.997-1.311,1.605-1.606,1.827
		c0.665,0,0.997,0.185,0.997,0.554c-0.147,0.369-0.517,0.665-1.107,0.887c0.074,0.443,0,0.738-0.222,0.885
		c-0.221,0.147-0.554,0.147-0.997,0c-0.147,0.886-0.184,1.366-0.109,1.44c-0.444,0.073-0.85,0.48-1.219,1.218
		c-0.369,0.738-0.665,1.108-0.887,1.108c-0.147,0-0.313-0.074-0.498-0.222c-0.185-0.148-0.37-0.352-0.555-0.609l-0.553-0.775
		c0,0-0.129-0.204-0.388-0.609l-0.222-0.223c-0.886,0.444-1.771,0.074-2.658-1.107c-0.664,0.074-1.292,0-1.882-0.221
		c1.107,0.443,1.181,0.923,0.221,1.44c-0.812,0.369-1.586,0.443-2.326,0.221c0.887,0.37,1.255,0.887,1.108,1.551
		s-0.591,1.255-1.329,1.772c0.073,0,0.221-0.037,0.443-0.111c0.221-0.074,0.37-0.11,0.443-0.11c-0.074,0.369-0.425,0.72-1.053,1.052
		s-1.347,0.665-2.159,0.997c-0.813,0.332-1.33,0.571-1.551,0.719c-0.517,0.369-1.846,0.757-3.987,1.163
		c-2.141,0.407-3.469,0.461-3.987,0.167c-0.369-0.222-0.59-0.442-0.665-0.664c-0.073-0.222-0.018-0.535,0.167-0.942
		c0.185-0.407,0.313-0.719,0.388-0.942c0.443-1.697,0.628-2.693,0.554-2.989c-0.074-0.222-0.388-0.518-0.941-0.887
		c-0.554-0.369-0.757-0.811-0.609-1.328c0.074-0.296,0.499-0.665,1.274-1.108c0.775-0.442,1.237-0.885,1.384-1.329
		c0.369-0.959,0.222-1.883-0.443-2.769c-0.295-0.369-0.849-0.776-1.661-1.219c-0.813-0.442-1.329-0.812-1.55-1.107
		c-0.37-0.369-0.499-0.793-0.388-1.273c0.111-0.48,0.129-0.83,0.055-1.052c0.074,0.074,0.11,0.166,0.11,0.277
		s0.037,0.203,0.111,0.277c0-0.959,0.406-1.772,1.219-2.437c0.59-0.443,0-1.107-1.772-1.994c-1.476-0.811-2.215-0.958-2.215-0.442
		c0.074,0.591-0.203,1.182-0.83,1.772c-0.628,0.59-1.016,1.034-1.164,1.329c-0.147,0.296-0.277,0.997-0.387,2.105
		c-0.111,1.107-0.461,1.882-1.052,2.326c-0.443,0.295-1.144,0.443-2.104,0.443s-1.624-0.185-1.993-0.555
		c0,0.739-1.809,1.847-5.427,3.323c-1.255,0.591-3.396,0.738-6.423,0.443c0.517,0.074,0.517,0.701,0,1.882
		c-0.591,1.181-1.366,1.625-2.326,1.329c-0.591,1.847-0.738,3.139-0.443,3.876c0.147,0.369,0.48,0.886,0.997,1.55
		c0.517,0.665,0.849,1.219,0.996,1.662c0.074,0.221,0.646,0.442,1.717,0.664c1.071,0.221,1.679,0.517,1.827,0.886
		c0.074,0.296-0.018,0.535-0.276,0.72c-0.259,0.185-0.609,0.351-1.053,0.499c3.914-0.443,6.239,0.221,6.977,1.993
		c0.37,0.664,0.48,1.181,0.333,1.55c0-0.073,0.074-0.11,0.221-0.11c0.148,0,0.222-0.037,0.222-0.111
		c0.886,0.221,1.145,0.849,0.775,1.882c1.403,0.592,2.363,0.887,2.879,0.887c0.37-0.074,0.775-0.295,1.219-0.665
		c0.443-0.369,0.812-0.554,1.107-0.554c1.255-0.221,2.049,0.148,2.382,1.107c0.332,0.96-0.019,1.81-1.052,2.548
		c0.517-0.296,0.775-0.074,0.775,0.664c-0.074,0.959-0.332,1.661-0.775,2.104c-0.222,0.148-0.462,0.24-0.72,0.277
		s-0.498,0.037-0.72,0c-0.221-0.037-0.479-0.019-0.775,0.055c-0.073,0-0.369,0.074-0.886,0.221c-0.074-0.073-0.147-0.11-0.222-0.11
		h-0.886c-0.295-0.148-0.443-0.333-0.443-0.554v-0.111c-0.074-0.221,0.073-0.443,0.443-0.665l0.553-0.11l0.333-0.222
		c-0.074,0-0.166-0.092-0.276-0.277c-0.111-0.185-0.204-0.276-0.277-0.276c0-0.221,0.11-0.406,0.333-0.554
		c-0.148-0.074-0.665-0.351-1.551-0.83c-0.886-0.48-1.513-0.868-1.882-1.163c-0.074-0.074-0.222-0.167-0.443-0.277
		c-0.222-0.11-0.37-0.203-0.443-0.277c-0.148-0.073-0.295,0-0.444,0.223c-0.147,0.222-0.295,0.553-0.442,0.996
		c-0.148,0.443-0.295,0.868-0.443,1.274c-0.147,0.405-0.313,0.774-0.498,1.106c-0.185,0.333-0.388,0.499-0.609,0.499
		c-0.886,0-1.55-0.628-1.993-1.883c0.222,0.738-0.258,1.384-1.44,1.938c-1.181,0.554-2.104,0.83-2.769,0.83
		c1.477,1.108,1.145,2.215-0.997,3.323l-0.111,0.11c-2.214-0.295-3.876-0.553-4.983-0.775c-0.148-0.443-0.037-0.885,0.332-1.329
		c-0.073-0.517,0.148-0.849,0.665-0.997c0-0.074,0.019-0.111,0.056-0.111c0.037,0,0.055-0.037,0.055-0.11
		c0,0.073-0.018,0.11-0.055,0.11c-0.037,0-0.056,0.038-0.056,0.111c0.222-0.074,0.609-0.129,1.163-0.167s0.904-0.092,1.052-0.167
		c0.221-0.074,0.388-0.147,0.499-0.221l0.831-0.554c0,0,0.203-0.221,0.609-0.664c0.406-0.443,0.313-0.627-0.277-0.554
		c-0.148-0.073-0.48-0.221-0.997-0.442c-0.517-0.222-0.979-0.425-1.385-0.609c-0.406-0.185-0.646-0.314-0.72-0.388
		c-0.221-0.369-0.221-0.959,0-1.771c0.222-0.812,0.147-1.366-0.221-1.661c-0.37,0.369-0.739,1.052-1.107,2.049
		c-0.37,0.996-0.665,1.643-0.886,1.938c0.591-0.665-0.517-0.887-3.323-0.665l-0.885,0.11c-0.295,0-0.85-0.074-1.662-0.221
		s-1.403-0.185-1.772-0.111c-0.517,0-1.587,0.222-3.212,0.665c0.517,1.255,0.702,2.177,0.554,2.768c0.369,0,0.627,0.074,0.775,0.222
		l-0.665,0.332c-0.221-0.074-1.144-0.405-2.769-0.997c0.148-0.221,0.443-0.571,0.886-1.051c0.443-0.48,0.776-0.904,0.997-1.273
		c-1.625,0.442-2.621,0.369-2.99-0.222c0-0.074-0.333-0.074-0.996,0c-1.846,0.073-2.732-0.185-2.658-0.775
		c0.074-0.295,0.406-0.738,0.997-1.329c0-0.664-0.037-0.997-0.111-0.997c-1.993,1.625-3.101,2.474-3.322,2.548
		c-12.699-6.128-22.887-15.283-30.566-27.465c0.074-0.147,0.167-0.554,0.277-1.219c0.11-0.664,0.24-0.978,0.388-0.941
		c0.148,0.038,0.554,0.203,1.218,0.499c0.665-0.665,0.775-1.44,0.332-2.326c0.147,0.147,1.477-0.628,3.987-2.326
		c4.135-2.954,4.947-4.91,2.437-5.87v0.609c0,0,0.037,0.24,0.111,0.719c-0.665-0.073-1.366,0.112-2.104,0.555
		c-0.222-0.443-0.203-1.182,0.056-2.215c0.258-1.033,0.683-1.551,1.273-1.551c-0.591,0-0.979-0.627-1.163-1.882
		c-0.185-1.256-0.277-2.677-0.277-4.265c0-1.587-0.037-2.528-0.111-2.823l0.222-0.111c-0.222-0.959,0-2.344,0.664-4.152
		c0.665-1.81,1.55-2.566,2.658-2.271c-0.295-1.329-0.111-2.104,0.554-2.325c-0.074-0.296-0.074-0.591,0-0.887
		c0.074-0.295,0.24-0.609,0.499-0.941s0.48-0.591,0.664-0.774l0.831-0.832l0.665-0.663c2.067-0.813,3.581-1.883,4.54-3.212
		c0.295-0.443,0.683-1.348,1.163-2.714c0.48-1.366,1.052-2.307,1.717-2.824c-0.148-0.441,0.221-1.236,1.107-2.381
		c0.886-1.145,1.292-2.086,1.218-2.823c-0.074,0-0.167-0.02-0.277-0.057c-0.111-0.035-0.204-0.055-0.277-0.055
		c0.222-0.59,0.83-1.181,1.827-1.771s1.606-1.107,1.828-1.551c0.148-0.222,0.24-0.609,0.277-1.163
		c0.037-0.553,0.148-0.996,0.332-1.328c0.185-0.333,0.499-0.425,0.942-0.276c0.221,1.771-0.738,4.281-2.88,7.529
		c-1.181,1.993-1.846,3.139-1.993,3.435c-0.221,0.367-0.425,0.977-0.609,1.826c-0.185,0.849-0.351,1.422-0.499,1.717
		c1.993-0.665,2.954-1.145,2.88-1.44c-0.369-0.737,0.59-2.658,2.879-5.758c0.148-0.223,0.517-0.591,1.108-1.107
		c0.59-0.518,0.997-0.961,1.218-1.329c0.222-0.295,0.572-0.831,1.053-1.606c0.479-0.775,0.867-1.347,1.163-1.716
		c-0.074,0-0.185-0.074-0.332-0.222l-0.333-0.333c0.295-0.147,0.627-0.332,0.997-0.553c0.368-0.223,0.664-0.389,0.886-0.499
		c0.222-0.11,0.498-0.295,0.831-0.553c0.332-0.259,0.609-0.536,0.831-0.831c1.181-1.329,1.919-2.547,2.215-3.655
		c0.074-0.295,0.092-0.866,0.055-1.717c-0.037-0.848,0.019-1.457,0.167-1.827c0.147-0.443,0.369-0.848,0.664-1.219
		c0.295-0.367,0.72-0.737,1.274-1.106c0.554-0.368,0.979-0.628,1.273-0.775s0.831-0.388,1.606-0.721
		c0.775-0.331,1.2-0.534,1.273-0.608c0.148-0.073,0.813-0.479,1.993-1.218c1.182-0.738,2.104-1.255,2.77-1.551
		c0.738-0.295,1.347-0.461,1.827-0.498c0.479-0.036,1.07,0.056,1.772,0.277C-57.975,1069.428-57.403,1069.576-56.96,1069.649z"/>
</g>
</svg>
